<svg xmlns="http://www.w3.org/2000/svg" width="751.8919677734375" height="677.21240234375" viewBox="-359.4358825683594 -315.8009338378906 751.8919677734375 677.21240234375"><title>Neo4j Graph Visualization</title><desc>Created using Neo4j (http://www.neo4j.com/)</desc><g class="layer relationships"><g class="relationship" transform="translate(-5.963386330057928 183.29616119882812) rotate(275.5018823366136)"><path class="b-outline" fill="#8DCC93" stroke="none" d="M 25 0.5 L 51.89487222247925 0.5 L 51.89487222247925 -0.5 L 25 -0.5 Z M 105.03549722247925 0.5 L 131.9303694449585 0.5 L 131.9303694449585 3.5 L 138.9303694449585 0 L 131.9303694449585 -3.5 L 131.9303694449585 -0.5 L 105.03549722247925 -0.5 Z"/><text text-anchor="middle" pointer-events="none" font-size="8px" fill="#000000" x="78.46518472247925" y="3" font-family="Helvetica Neue, Helvetica, Arial, sans-serif">did_a_review</text></g><g class="relationship" transform="translate(198.45006649286174 270.6464380859246) rotate(233.28782908146297)"><path class="b-outline" fill="#DA7194" stroke="none" d="M 25 0.5 L 52.72648005417766 0.5 L 52.72648005417766 -0.5 L 25 -0.5 Z M 90.74210505417766 0.5 L 118.46858510835531 0.5 L 118.46858510835531 3.5 L 125.46858510835531 0 L 118.46858510835531 -3.5 L 118.46858510835531 -0.5 L 90.74210505417766 -0.5 Z"/><text text-anchor="middle" pointer-events="none" font-size="8px" fill="#000000" x="71.73429255417766" y="3" transform="rotate(180 71.73429255417766 0)" font-family="Helvetica Neue, Helvetica, Arial, sans-serif">reviewed</text></g><g class="relationship" transform="translate(156.6590040140066 -54.29494192257271) rotate(513.1351259553875)"><path class="b-outline" fill="#8DCC93" stroke="none" d="M 25 0.5 L 52.26864098284291 0.5 L 52.26864098284291 -0.5 L 25 -0.5 Z M 105.40926598284291 0.5 L 132.67790696568582 0.5 L 132.67790696568582 3.5 L 139.67790696568582 0 L 132.67790696568582 -3.5 L 132.67790696568582 -0.5 L 105.40926598284291 -0.5 Z"/><text text-anchor="middle" pointer-events="none" font-size="8px" fill="#000000" x="78.83895348284291" y="3" transform="rotate(180 78.83895348284291 0)" font-family="Helvetica Neue, Helvetica, Arial, sans-serif">did_a_review</text></g><g class="relationship" transform="translate(191.87901754878513 50.99250140863503) rotate(189.6205975623364)"><path class="b-outline" fill="#8DCC93" stroke="none" d="M 25 0.5 L 62.29116411852242 0.5 L 62.29116411852242 -0.5 L 25 -0.5 Z M 115.43178911852242 0.5 L 152.72295323704483 0.5 L 152.72295323704483 3.5 L 159.72295323704483 0 L 152.72295323704483 -3.5 L 152.72295323704483 -0.5 L 115.43178911852242 -0.5 Z"/><text text-anchor="middle" pointer-events="none" font-size="8px" fill="#000000" x="88.86147661852242" y="3" transform="rotate(180 88.86147661852242 0)" font-family="Helvetica Neue, Helvetica, Arial, sans-serif">did_a_review</text></g><g class="relationship" transform="translate(-112.19752336616742 131.22644955999414) rotate(317.6645290539599)"><path class="b-outline" fill="#8DCC93" stroke="none" d="M 25 0.5 L 52.41694945771219 0.5 L 52.41694945771219 -0.5 L 25 -0.5 Z M 105.55757445771219 0.5 L 132.97452391542438 0.5 L 132.97452391542438 3.5 L 139.97452391542438 0 L 132.97452391542438 -3.5 L 132.97452391542438 -0.5 L 105.55757445771219 -0.5 Z"/><text text-anchor="middle" pointer-events="none" font-size="8px" fill="#000000" x="78.98726195771219" y="3" font-family="Helvetica Neue, Helvetica, Arial, sans-serif">did_a_review</text></g><g class="relationship" transform="translate(-167.28028618457293 26.976865277393074) rotate(357.78226395229706)"><path class="b-outline" fill="#8DCC93" stroke="none" d="M 25 0.5 L 58.51318295894835 0.5 L 58.51318295894835 -0.5 L 25 -0.5 Z M 111.65380795894835 0.5 L 145.1669909178967 0.5 L 145.1669909178967 3.5 L 152.1669909178967 0 L 145.1669909178967 -3.5 L 145.1669909178967 -0.5 L 111.65380795894835 -0.5 Z"/><text text-anchor="middle" pointer-events="none" font-size="8px" fill="#000000" x="85.08349545894835" y="3" font-family="Helvetica Neue, Helvetica, Arial, sans-serif">did_a_review</text></g><g class="relationship" transform="translate(-32.32894238958927 -141.4558842682891) rotate(435.4015548570407)"><path class="b-outline" fill="#8DCC93" stroke="none" d="M 25 0.5 L 53.4133197977807 0.5 L 53.4133197977807 -0.5 L 25 -0.5 Z M 106.5539447977807 0.5 L 134.9672645955614 0.5 L 134.9672645955614 3.5 L 141.9672645955614 0 L 134.9672645955614 -3.5 L 134.9672645955614 -0.5 L 106.5539447977807 -0.5 Z"/><text text-anchor="middle" pointer-events="none" font-size="8px" fill="#000000" x="79.9836322977807" y="3" font-family="Helvetica Neue, Helvetica, Arial, sans-serif">did_a_review</text></g><g class="relationship" transform="translate(-125.06679441118101 -77.06781603933707) rotate(395.78685859941504)"><path class="b-outline" fill="#8DCC93" stroke="none" d="M 25 0.5 L 53.02950067023963 0.5 L 53.02950067023963 -0.5 L 25 -0.5 Z M 106.17012567023963 0.5 L 134.19962634047926 0.5 L 134.19962634047926 3.5 L 141.19962634047926 0 L 134.19962634047926 -3.5 L 134.19962634047926 -0.5 L 106.17012567023963 -0.5 Z"/><text text-anchor="middle" pointer-events="none" font-size="8px" fill="#000000" x="79.59981317023963" y="3" font-family="Helvetica Neue, Helvetica, Arial, sans-serif">did_a_review</text></g><g class="relationship" transform="translate(74.85096137040674 -133.43907725147264) rotate(472.9729847741442)"><path class="b-outline" fill="#8DCC93" stroke="none" d="M 25 0.5 L 53.323803794578524 0.5 L 53.323803794578524 -0.5 L 25 -0.5 Z M 106.46442879457852 0.5 L 134.78823258915705 0.5 L 134.78823258915705 3.5 L 141.78823258915705 0 L 134.78823258915705 -3.5 L 134.78823258915705 -0.5 L 106.46442879457852 -0.5 Z"/><text text-anchor="middle" pointer-events="none" font-size="8px" fill="#000000" x="79.89411629457852" y="3" transform="rotate(180 79.89411629457852 0)" font-family="Helvetica Neue, Helvetica, Arial, sans-serif">did_a_review</text></g><g class="relationship" transform="translate(108.50063113388782 150.023495893686) rotate(232.75936837241926)"><path class="b-outline" fill="#8DCC93" stroke="none" d="M 25 0.5 L 51.51637751814279 0.5 L 51.51637751814279 -0.5 L 25 -0.5 Z M 104.65700251814279 0.5 L 131.17338003628558 0.5 L 131.17338003628558 3.5 L 138.17338003628558 0 L 131.17338003628558 -3.5 L 131.17338003628558 -0.5 L 104.65700251814279 -0.5 Z"/><text text-anchor="middle" pointer-events="none" font-size="8px" fill="#000000" x="78.08669001814279" y="3" transform="rotate(180 78.08669001814279 0)" font-family="Helvetica Neue, Helvetica, Arial, sans-serif">did_a_review</text></g><g class="relationship" transform="translate(116.31289474090124 -280.0866592605108) rotate(465.7872842608727)"><path class="b-outline" fill="#DA7194" stroke="none" d="M 25 0.5 L 53.690293165293454 0.5 L 53.690293165293454 -0.5 L 25 -0.5 Z M 91.70591816529345 0.5 L 120.39621133058691 0.5 L 120.39621133058691 3.5 L 127.39621133058691 0 L 120.39621133058691 -3.5 L 120.39621133058691 -0.5 L 91.70591816529345 -0.5 Z"/><text text-anchor="middle" pointer-events="none" font-size="8px" fill="#000000" x="72.69810566529345" y="3" transform="rotate(180 72.69810566529345 0)" font-family="Helvetica Neue, Helvetica, Arial, sans-serif">reviewed</text></g><g class="relationship" transform="translate(-245.58504884457665 -169.26487547346852) rotate(397.41616699744327)"><path class="b-outline" fill="#DA7194" stroke="none" d="M 25 0.5 L 53.36205539887909 0.5 L 53.36205539887909 -0.5 L 25 -0.5 Z M 91.3776803988791 0.5 L 119.73973579775819 0.5 L 119.73973579775819 3.5 L 126.73973579775819 0 L 119.73973579775819 -3.5 L 119.73973579775819 -0.5 L 91.3776803988791 -0.5 Z"/><text text-anchor="middle" pointer-events="none" font-size="8px" fill="#000000" x="72.3698678988791" y="3" font-family="Helvetica Neue, Helvetica, Arial, sans-serif">reviewed</text></g><g class="relationship" transform="translate(-77.18021463683053 -286.80093998463747) rotate(432.8505702637108)"><path class="b-outline" fill="#DA7194" stroke="none" d="M 25 0.5 L 53.546151636303506 0.5 L 53.546151636303506 -0.5 L 25 -0.5 Z M 91.5617766363035 0.5 L 120.10792827260701 0.5 L 120.10792827260701 3.5 L 127.10792827260701 0 L 120.10792827260701 -3.5 L 120.10792827260701 -0.5 L 91.5617766363035 -0.5 Z"/><text text-anchor="middle" pointer-events="none" font-size="8px" fill="#000000" x="72.5539641363035" y="3" font-family="Helvetica Neue, Helvetica, Arial, sans-serif">reviewed</text></g><g class="relationship" transform="translate(-330.43588770913675 25.65165950267253) rotate(360.4653657459517)"><path class="b-outline" fill="#DA7194" stroke="none" d="M 25 0.5 L 59.07267916189734 0.5 L 59.07267916189734 -0.5 L 25 -0.5 Z M 97.08830416189734 0.5 L 131.16098332379468 0.5 L 131.16098332379468 3.5 L 138.16098332379468 0 L 131.16098332379468 -3.5 L 131.16098332379468 -0.5 L 97.08830416189734 -0.5 Z"/><text text-anchor="middle" pointer-events="none" font-size="8px" fill="#000000" x="78.08049166189734" y="3" font-family="Helvetica Neue, Helvetica, Arial, sans-serif">reviewed</text></g><g class="relationship" transform="translate(-224.07581393682202 232.63186995247852) rotate(317.8111368291113)"><path class="b-outline" fill="#DA7194" stroke="none" d="M 25 0.5 L 52.99021923922534 0.5 L 52.99021923922534 -0.5 L 25 -0.5 Z M 91.00584423922534 0.5 L 118.99606347845068 0.5 L 118.99606347845068 3.5 L 125.99606347845068 0 L 118.99606347845068 -3.5 L 118.99606347845068 -0.5 L 91.00584423922534 -0.5 Z"/><text text-anchor="middle" pointer-events="none" font-size="8px" fill="#000000" x="71.99803173922534" y="3" font-family="Helvetica Neue, Helvetica, Arial, sans-serif">reviewed</text></g><g class="relationship" transform="translate(363.45603984202904 70.0305473738641) rotate(186.3315928371432)"><path class="b-outline" fill="#DA7194" stroke="none" d="M 25 0.5 L 63.807194557276105 0.5 L 63.807194557276105 -0.5 L 25 -0.5 Z M 101.8228195572761 0.5 L 140.6300141145522 0.5 L 140.6300141145522 3.5 L 147.6300141145522 0 L 140.6300141145522 -3.5 L 140.6300141145522 -0.5 L 101.8228195572761 -0.5 Z"/><text text-anchor="middle" pointer-events="none" font-size="8px" fill="#000000" x="82.8150070572761" y="3" transform="rotate(180 82.8150070572761 0)" font-family="Helvetica Neue, Helvetica, Arial, sans-serif">reviewed</text></g><g class="relationship" transform="translate(286.9641272825818 -131.64072966480265) rotate(509.30771595323637)"><path class="b-outline" fill="#DA7194" stroke="none" d="M 25 0.5 L 53.257938389674194 0.5 L 53.257938389674194 -0.5 L 25 -0.5 Z M 91.2735633896742 0.5 L 119.53150177934839 0.5 L 119.53150177934839 3.5 L 126.53150177934839 0 L 119.53150177934839 -3.5 L 119.53150177934839 -0.5 L 91.2735633896742 -0.5 Z"/><text text-anchor="middle" pointer-events="none" font-size="8px" fill="#000000" x="72.2657508896742" y="3" transform="rotate(180 72.2657508896742 0)" font-family="Helvetica Neue, Helvetica, Arial, sans-serif">reviewed</text></g><g class="relationship" transform="translate(-21.95835783938847 332.4114866946708) rotate(276.12246643163616)"><path class="b-outline" fill="#DA7194" stroke="none" d="M 25 0.5 L 52.477551757492634 0.5 L 52.477551757492634 -0.5 L 25 -0.5 Z M 90.49317675749263 0.5 L 117.97072851498527 0.5 L 117.97072851498527 3.5 L 124.97072851498527 0 L 117.97072851498527 -3.5 L 117.97072851498527 -0.5 L 90.49317675749263 -0.5 Z"/><text text-anchor="middle" pointer-events="none" font-size="8px" fill="#000000" x="71.48536425749263" y="3" font-family="Helvetica Neue, Helvetica, Arial, sans-serif">reviewed</text></g></g><g class="layer nodes"><g class="node" aria-label="graph-node62060" transform="translate(-5.963386330057928,183.29616119882812)"><circle class="b-outline" cx="0" cy="0" r="25" fill="#C990C0" stroke="#b261a5" stroke-width="2px"/><text class="caption" text-anchor="middle" pointer-events="none" x="0" y="5" font-size="10px" fill="#FFFFFF" font-family="Helvetica Neue, Helvetica, Arial, sans-serif"> 4</text></g><g class="node" aria-label="graph-node3350" transform="translate(9.754004087361071,20.12101093131034)"><circle class="b-outline" cx="0" cy="0" r="25" fill="#57C7E3" stroke="#23b3d7" stroke-width="2px"/><text class="caption" text-anchor="middle" pointer-events="none" x="0" y="5" font-size="10px" fill="#2A2C34" font-family="Helvetica Neue, Helvetica, Arial, sans-serif"> philbertk</text></g><g class="node" aria-label="graph-node30476" transform="translate(198.45006649286174,270.6464380859246)"><circle class="b-outline" cx="0" cy="0" r="25" fill="#F79767" stroke="#f36924" stroke-width="2px"/><text class="caption" text-anchor="middle" pointer-events="none" x="0" y="5" font-size="10px" fill="#FFFFFF" font-family="Helvetica Neue, Helvetica, Arial, sans-serif"> Okto</text></g><g class="node" aria-label="graph-node58538" transform="translate(108.50063113388782,150.023495893686)"><circle class="b-outline" cx="0" cy="0" r="25" fill="#C990C0" stroke="#b261a5" stroke-width="2px"/><text class="caption" text-anchor="middle" pointer-events="none" x="0" y="5" font-size="10px" fill="#FFFFFF" font-family="Helvetica Neue, Helvetica, Arial, sans-serif"> 4</text></g><g class="node" aria-label="graph-node61302" transform="translate(156.6590040140066,-54.29494192257271)"><circle class="b-outline" cx="0" cy="0" r="25" fill="#C990C0" stroke="#b261a5" stroke-width="2px"/><text class="caption" text-anchor="middle" pointer-events="none" x="0" y="5" font-size="10px" fill="#FFFFFF" font-family="Helvetica Neue, Helvetica, Arial, sans-serif"> 4</text></g><g class="node" aria-label="graph-node61090" transform="translate(191.87901754878513,50.99250140863503)"><circle class="b-outline" cx="0" cy="0" r="25" fill="#C990C0" stroke="#b261a5" stroke-width="2px"/><text class="caption" text-anchor="middle" pointer-events="none" x="0" y="5" font-size="10px" fill="#FFFFFF" font-family="Helvetica Neue, Helvetica, Arial, sans-serif"> 4</text></g><g class="node" aria-label="graph-node60213" transform="translate(-112.19752336616742,131.22644955999414)"><circle class="b-outline" cx="0" cy="0" r="25" fill="#C990C0" stroke="#b261a5" stroke-width="2px"/><text class="caption" text-anchor="middle" pointer-events="none" x="0" y="5" font-size="10px" fill="#FFFFFF" font-family="Helvetica Neue, Helvetica, Arial, sans-serif"> 3</text></g><g class="node" aria-label="graph-node59940" transform="translate(-167.28028618457293,26.976865277393074)"><circle class="b-outline" cx="0" cy="0" r="25" fill="#C990C0" stroke="#b261a5" stroke-width="2px"/><text class="caption" text-anchor="middle" pointer-events="none" x="0" y="5" font-size="10px" fill="#FFFFFF" font-family="Helvetica Neue, Helvetica, Arial, sans-serif"> 4</text></g><g class="node" aria-label="graph-node59756" transform="translate(-32.32894238958927,-141.4558842682891)"><circle class="b-outline" cx="0" cy="0" r="25" fill="#C990C0" stroke="#b261a5" stroke-width="2px"/><text class="caption" text-anchor="middle" pointer-events="none" x="0" y="5" font-size="10px" fill="#FFFFFF" font-family="Helvetica Neue, Helvetica, Arial, sans-serif"> 4</text></g><g class="node" aria-label="graph-node59683" transform="translate(-125.06679441118101,-77.06781603933707)"><circle class="b-outline" cx="0" cy="0" r="25" fill="#C990C0" stroke="#b261a5" stroke-width="2px"/><text class="caption" text-anchor="middle" pointer-events="none" x="0" y="5" font-size="10px" fill="#FFFFFF" font-family="Helvetica Neue, Helvetica, Arial, sans-serif"> 4</text></g><g class="node" aria-label="graph-node59184" transform="translate(74.85096137040674,-133.43907725147264)"><circle class="b-outline" cx="0" cy="0" r="25" fill="#C990C0" stroke="#b261a5" stroke-width="2px"/><text class="caption" text-anchor="middle" pointer-events="none" x="0" y="5" font-size="10px" fill="#FFFFFF" font-family="Helvetica Neue, Helvetica, Arial, sans-serif"> 4</text></g><g class="node" aria-label="graph-node30477" transform="translate(116.31289474090124,-280.0866592605108)"><circle class="b-outline" cx="0" cy="0" r="25" fill="#F79767" stroke="#f36924" stroke-width="2px"/><text class="caption" text-anchor="middle" pointer-events="none" x="0" y="5" font-size="10px" fill="#FFFFFF" font-family="Helvetica Neue, Helvetica, Arial, sans-serif"> Brrr</text></g><g class="node" aria-label="graph-node30479" transform="translate(-245.58504884457665,-169.26487547346852)"><circle class="b-outline" cx="0" cy="0" r="25" fill="#F79767" stroke="#f36924" stroke-width="2px"/><text class="caption" text-anchor="middle" pointer-events="none" x="0" y="0" font-size="10px" fill="#FFFFFF" font-family="Helvetica Neue, Helvetica, Arial, sans-serif"> Broken</text><text class="caption" text-anchor="middle" pointer-events="none" x="0" y="10" font-size="10px" fill="#FFFFFF" font-family="Helvetica Neue, Helvetica, Arial, sans-serif"> I…</text></g><g class="node" aria-label="graph-node30502" transform="translate(-77.18021463683053,-286.80093998463747)"><circle class="b-outline" cx="0" cy="0" r="25" fill="#F79767" stroke="#f36924" stroke-width="2px"/><text class="caption" text-anchor="middle" pointer-events="none" x="0" y="-5" font-size="10px" fill="#FFFFFF" font-family="Helvetica Neue, Helvetica, Arial, sans-serif"> W'09</text><text class="caption" text-anchor="middle" pointer-events="none" x="0" y="5" font-size="10px" fill="#FFFFFF" font-family="Helvetica Neue, Helvetica, Arial, sans-serif"> Belgian</text><text class="caption" text-anchor="middle" pointer-events="none" x="0" y="15" font-size="10px" fill="#FFFFFF" font-family="Helvetica Neue, Helvetica, Arial, sans-serif"> Style </text></g><g class="node" aria-label="graph-node30473" transform="translate(-330.43588770913675,25.65165950267253)"><circle class="b-outline" cx="0" cy="0" r="25" fill="#F79767" stroke="#f36924" stroke-width="2px"/><text class="caption" text-anchor="middle" pointer-events="none" x="0" y="-10" font-size="10px" fill="#FFFFFF" font-family="Helvetica Neue, Helvetica, Arial, sans-serif"> W'11</text><text class="caption" text-anchor="middle" pointer-events="none" x="0" y="0" font-size="10px" fill="#FFFFFF" font-family="Helvetica Neue, Helvetica, Arial, sans-serif"> (KGB</text><text class="caption" text-anchor="middle" pointer-events="none" x="0" y="10" font-size="10px" fill="#FFFFFF" font-family="Helvetica Neue, Helvetica, Arial, sans-serif"> Imperial</text><text class="caption" text-anchor="middle" pointer-events="none" x="0" y="20" font-size="10px" fill="#FFFFFF" font-family="Helvetica Neue, Helvetica, Arial, sans-serif">…</text></g><g class="node" aria-label="graph-node30507" transform="translate(-224.07581393682202,232.63186995247852)"><circle class="b-outline" cx="0" cy="0" r="25" fill="#F79767" stroke="#f36924" stroke-width="2px"/><text class="caption" text-anchor="middle" pointer-events="none" x="0" y="0" font-size="10px" fill="#FFFFFF" font-family="Helvetica Neue, Helvetica, Arial, sans-serif"> Pitch</text><text class="caption" text-anchor="middle" pointer-events="none" x="0" y="10" font-size="10px" fill="#FFFFFF" font-family="Helvetica Neue, Helvetica, Arial, sans-serif">IP…</text></g><g class="node" aria-label="graph-node30475" transform="translate(363.45603984202904,70.0305473738641)"><circle class="b-outline" cx="0" cy="0" r="25" fill="#F79767" stroke="#f36924" stroke-width="2px"/><text class="caption" text-anchor="middle" pointer-events="none" x="0" y="0" font-size="10px" fill="#FFFFFF" font-family="Helvetica Neue, Helvetica, Arial, sans-serif"> Drifter</text><text class="caption" text-anchor="middle" pointer-events="none" x="0" y="10" font-size="10px" fill="#FFFFFF" font-family="Helvetica Neue, Helvetica, Arial, sans-serif"> A…</text></g><g class="node" aria-label="graph-node30480" transform="translate(286.9641272825818,-131.64072966480265)"><circle class="b-outline" cx="0" cy="0" r="25" fill="#F79767" stroke="#f36924" stroke-width="2px"/><text class="caption" text-anchor="middle" pointer-events="none" x="0" y="5" font-size="10px" fill="#FFFFFF" font-family="Helvetica Neue, Helvetica, Arial, sans-serif"> X-114 IPA</text></g><g class="node" aria-label="graph-node30472" transform="translate(-21.95835783938847,332.4114866946708)"><circle class="b-outline" cx="0" cy="0" r="25" fill="#F79767" stroke="#f36924" stroke-width="2px"/><text class="caption" text-anchor="middle" pointer-events="none" x="0" y="0" font-size="10px" fill="#FFFFFF" font-family="Helvetica Neue, Helvetica, Arial, sans-serif"> Widmer</text><text class="caption" text-anchor="middle" pointer-events="none" x="0" y="10" font-size="10px" fill="#FFFFFF" font-family="Helvetica Neue, Helvetica, Arial, sans-serif"> Hefew…</text></g></g></svg>